<svg width="260" height="54" viewBox="0 0 260 54" fill="none" xmlns="http://www.w3.org/2000/svg">
<path d="M87.1226 16.1415C85.1481 14.0299 82.6214 12.5132 79.8288 11.7655L79.9567 8C83.7379 8.83389 87.1772 10.7954 89.8207 13.6232C92.4641 16.4519 94.1884 20.0154 94.7656 23.8439L90.9974 23.7133C90.4396 20.8762 89.097 18.2531 87.1226 16.1415Z" fill="#2285D0"></path>
<path d="M58.0662 20.601C59.2141 17.3118 61.2386 14.3996 63.9228 12.1787C66.6061 9.95779 69.8462 8.51238 73.292 8L73.1642 11.7655C69.7415 12.4307 66.645 14.2375 64.3815 16.8902C62.117 19.542 60.8189 22.884 60.6994 26.3687C60.5863 30.1453 61.8631 33.8311 64.2888 36.7284C66.7136 39.6248 70.1186 41.5307 73.8554 42.0829C77.5931 42.6351 81.4021 41.7957 84.5616 39.7249C87.7211 37.6531 90.0097 34.4945 90.9937 30.8467L94.7656 30.9746C94.0216 34.3778 92.3622 37.5132 89.9652 40.0408C87.5682 42.5684 84.5255 44.3928 81.1667 45.3166C77.808 46.2403 74.2603 46.2273 70.908 45.2795C67.5558 44.3326 64.526 42.486 62.1476 39.9407C59.7691 37.3965 58.131 34.249 57.412 30.8402C56.6921 27.4305 56.9191 23.8902 58.0662 20.601Z" fill="url(#paint0_linear_2798_2406)"></path>
<path d="M108.771 29.2714V16.8368H110.71V24.2826C112.158 22.6022 113.966 21.7473 116.139 21.6723C118.26 21.594 120.093 22.3183 121.62 23.8714C123.17 25.4213 123.947 27.2583 123.947 29.4052C123.947 31.5521 123.223 33.2586 121.8 34.7562C120.377 36.2571 118.619 37.0304 116.576 37.1087C114.455 37.187 112.622 36.4366 111.042 34.8867C109.463 33.3369 108.716 31.4999 108.768 29.3791V29.2747L108.771 29.2714ZM120.407 33.3304C121.467 32.1656 121.983 30.8213 121.957 29.2453C121.93 27.6955 121.363 26.374 120.25 25.2647C119.164 24.152 117.845 23.5843 116.269 23.5843C114.693 23.5843 113.476 24.1259 112.416 25.2386C111.356 26.3512 110.788 27.6694 110.762 29.2192C110.71 30.8474 111.254 32.27 112.416 33.4837C113.581 34.6747 114.951 35.2424 116.553 35.1641C118.08 35.0858 119.346 34.4919 120.407 33.3271V33.3304Z" fill="#444444"></path>
<path d="M140.545 31.9371C140.004 33.513 139.071 34.7823 137.752 35.7122C136.434 36.6421 134.986 37.1087 133.383 37.1348C131.367 37.1609 129.582 36.4365 128.032 34.9356C126.483 33.4086 125.68 31.6271 125.654 29.5324C125.602 27.3332 126.378 25.4212 127.98 23.8453C129.608 22.2432 131.498 21.4928 133.693 21.6233C135.658 21.7538 137.364 22.5532 138.813 24.0541C140.209 25.5289 140.908 27.1831 140.908 29.0168V30.0773H127.67C127.827 31.5521 128.447 32.7919 129.556 33.7479C130.669 34.7039 131.961 35.1966 133.462 35.1705C135.788 35.1444 137.442 34.0579 138.451 31.9403H140.545V31.9371ZM138.969 28.2664C138.686 26.896 138.04 25.7834 137.031 24.9318C136.023 24.0802 134.809 23.6397 133.387 23.6136C131.964 23.5875 130.724 24.028 129.664 24.8796C128.603 25.7344 127.957 26.8699 127.674 28.2664H138.973H138.969Z" fill="#444444"></path>
<path d="M155.668 36.7694H153.678V28.1588C153.678 26.9189 153.211 25.8585 152.307 24.9514C151.404 24.0443 150.369 23.6071 149.152 23.6071C147.935 23.6071 146.852 24.0476 145.945 24.9514C145.038 25.8552 144.601 26.9156 144.601 28.1588V36.7694H142.61V28.3676C142.61 26.4556 143.23 24.8764 144.473 23.6104C145.713 22.3444 147.266 21.6984 149.152 21.6984C151.038 21.6984 152.565 22.3444 153.805 23.6104C155.045 24.8764 155.668 26.4556 155.668 28.3676V36.7694Z" fill="#444444"></path>
<path d="M172.628 31.9371C172.087 33.513 171.154 34.7823 169.835 35.7122C168.517 36.6421 167.069 37.1087 165.466 37.1348C163.45 37.1609 161.665 36.4365 160.115 34.9356C158.566 33.4086 157.763 31.6271 157.737 29.5324C157.685 27.3332 158.461 25.4212 160.063 23.8453C161.691 22.2432 163.581 21.4928 165.776 21.6233C167.741 21.7538 169.447 22.5532 170.896 24.0541C172.292 25.5289 172.991 27.1831 172.991 29.0168V30.0773H159.753C159.91 31.5521 160.53 32.7919 161.639 33.7479C162.752 34.7039 164.044 35.1966 165.545 35.1705C167.871 35.1444 169.525 34.0579 170.534 31.9403H172.628V31.9371ZM171.052 28.2664C170.769 26.896 170.123 25.7834 169.114 24.9318C168.106 24.0802 166.892 23.6397 165.47 23.6136C164.047 23.5875 162.807 24.028 161.747 24.8796C160.686 25.7344 160.04 26.8699 159.757 28.2664H171.056H171.052Z" fill="#444444"></path>
<path d="M176.739 36.7694H174.749V21.7473C174.749 18.6183 176.896 16.8335 179.921 16.8335H180.436V18.5922L179.921 18.6183C178.886 18.6705 178.162 18.9021 177.721 19.3426C177.075 20.0409 176.739 20.713 176.739 21.4112V22.0312H180.436V23.842H176.739V36.7694Z" fill="#444444"></path>
<path d="M184.003 20.2758H182.064V16.8368H184.003V20.2758ZM184.003 36.7694H182.064V22.0312H184.003V36.7694Z" fill="#444444"></path>
<path d="M191.553 37.0794C187.961 37.0794 186.176 35.5524 186.176 32.5016V16.8629H188.166V22.0084H191.553V23.8454H188.166V32.1721C188.166 34.368 189.305 35.4545 191.553 35.4545V37.0827V37.0794Z" fill="#444444"></path>
<path d="M195.325 32.8932C195.325 33.3858 195.609 33.9014 196.154 34.443C196.698 34.9846 197.292 35.2457 197.912 35.2196C198.741 35.1935 199.387 34.9618 199.876 34.4691C200.317 34.0286 200.522 33.4348 200.549 32.7104C200.575 31.4445 199.85 30.5896 198.402 30.1263L196.669 29.5847C194.858 29.0169 193.902 27.7738 193.824 25.8879C193.772 24.7491 194.16 23.767 194.963 22.9676C195.791 22.165 196.773 21.7278 197.935 21.6756C198.943 21.6234 199.873 21.9594 200.728 22.6577C201.606 23.3559 202.072 24.2075 202.151 25.2418L202.177 25.6823H200.108V25.3462C200.108 24.3119 199.074 23.6137 197.935 23.6137C196.822 23.6398 195.892 24.4914 195.866 25.6301C195.788 26.6905 196.434 27.441 197.752 27.8782L199.459 28.4459C201.423 29.1181 202.483 30.4363 202.614 32.3744C202.718 33.6926 202.252 34.8574 201.217 35.8395C200.183 36.7955 198.995 37.236 197.651 37.1577C196.411 37.0794 195.377 36.5638 194.522 35.6568C193.693 34.753 193.282 33.6664 193.282 32.4005H195.325V32.8932Z" fill="#444444"></path>
<defs>
<linearGradient id="paint0_linear_2798_2406" x1="84.3817" y1="19.4404" x2="61.9069" y2="39.6768" gradientUnits="userSpaceOnUse">
<stop offset="0.3101" stop-color="#2285D0"></stop>
<stop offset="1" stop-color="#00B8FE"></stop>
</linearGradient>
</defs>
</svg>