<svg width="260" height="54" viewBox="0 0 260 54" fill="none" xmlns="http://www.w3.org/2000/svg">
<path d="M60.6431 16.3739C62.6175 14.2623 65.1442 12.7456 67.9368 11.9978L67.8089 8.23236C64.0277 9.06625 60.5884 11.0277 57.945 13.8556C55.3015 16.6843 53.5772 20.2478 53 24.0763L56.7683 23.9456C57.326 21.1085 58.6686 18.4855 60.6431 16.3739Z" fill="#4CAF50"></path>
<path d="M89.9309 20.601C88.7829 17.3118 86.7584 14.3996 84.0742 12.1787C81.391 9.95779 78.1508 8.51238 74.705 8L74.8329 11.7655C78.2555 12.4307 81.3521 14.2375 83.6156 16.8902C85.8801 19.542 87.1782 22.884 87.2977 26.3687C87.4107 30.1453 86.1339 33.8311 83.7083 36.7284C81.2835 39.6248 77.8784 41.5307 74.1417 42.0829C70.404 42.6351 66.595 41.7957 63.4355 39.7249C60.276 37.6531 57.9874 34.4945 57.0034 30.8467L53.2314 30.9746C53.9755 34.3778 55.6349 37.5132 58.0319 40.0408C60.4288 42.5684 63.4716 44.3928 66.8303 45.3166C70.1891 46.2403 73.7368 46.2273 77.089 45.2795C80.4413 44.3326 83.4711 42.486 85.8495 39.9407C88.2279 37.3965 89.8661 34.249 90.5851 30.8402C91.305 27.4305 91.078 23.8902 89.9309 20.601Z" fill="url(#paint0_linear_2798_4240)"></path>
<path d="M118.911 30.4393C117.378 33.2766 114.999 34.6582 111.8 34.6356C109.676 34.6098 107.862 33.8674 106.325 32.4116C104.792 30.9525 104.024 29.1643 103.998 27.0661C103.972 24.9421 104.714 23.1538 106.248 21.6432C107.807 20.1357 109.65 19.3417 111.796 19.3158C113.33 19.29 114.763 19.7 116.093 20.5166C117.345 21.3107 118.268 22.2823 118.804 23.4831L119.085 24.1222H116.887C115.786 22.2565 114.124 21.2849 111.874 21.2332C110.363 21.2074 109.033 21.7433 107.833 22.8698C106.58 24.0222 105.967 25.4005 105.967 26.9886C105.967 28.5768 106.554 29.9293 107.707 31.0817C108.859 32.2082 110.237 32.7699 111.825 32.744C114.101 32.7182 115.789 31.7983 116.916 30.0068H119.114L118.911 30.4425V30.4393Z" fill="#444444"></path>
<path d="M132.975 34.3032H131.032V25.8105C131.032 24.5839 130.57 23.5348 129.676 22.6374C128.782 21.74 127.707 21.3075 126.503 21.3333C125.276 21.3592 124.227 21.7691 123.382 22.5858C122.536 23.3798 122.129 24.4031 122.129 25.6555V34.2999H120.108V14.5805H122.077V21.7917C123.178 20.3327 124.608 19.5676 126.348 19.4902C128.165 19.4127 129.699 20.0002 131.003 21.2817C132.307 22.5599 132.972 24.1449 132.972 26.0138V34.2999L132.975 34.3032Z" fill="#444444"></path>
<path d="M149.576 29.5198C149.04 31.0789 148.117 32.3345 146.812 33.2545C145.508 34.1745 144.075 34.6361 142.49 34.6619C140.495 34.6877 138.73 33.9711 137.196 32.4863C135.663 30.9788 134.869 29.2131 134.843 27.1408C134.792 24.9652 135.56 23.0736 137.145 21.5145C138.756 19.9296 140.624 19.1872 142.797 19.3163C144.74 19.4454 146.428 20.2363 147.862 21.7211C149.243 23.1801 149.934 24.8167 149.934 26.6308V27.6799H136.838C136.993 29.1389 137.606 30.3655 138.704 31.3113C139.805 32.2571 141.083 32.7445 142.564 32.7187C144.866 32.6928 146.503 31.6179 147.5 29.523H149.572L149.576 29.5198ZM148.016 25.8884C147.736 24.5326 147.096 23.4319 146.099 22.5894C145.102 21.7437 143.901 21.3112 142.493 21.2853C141.086 21.2595 139.859 21.6953 138.81 22.5378C137.761 23.3835 137.122 24.5068 136.841 25.8884H148.02H148.016Z" fill="#444444"></path>
<path d="M166.662 39.4195H164.744V32.0792C163.285 33.7158 161.497 34.5873 159.373 34.6615C157.249 34.739 155.435 33.9966 153.924 32.4859C152.417 30.9527 151.648 29.1095 151.648 26.9855C151.648 24.8616 152.339 23.1733 153.747 21.6917C155.154 20.2069 156.894 19.4418 158.915 19.3902C161.038 19.3127 162.853 20.0552 164.415 21.5884C165.974 23.1217 166.716 24.939 166.665 27.0113V39.4163L166.662 39.4195ZM153.617 27.1437C153.643 28.7028 154.179 30.0069 155.28 31.1076C156.381 32.2083 157.685 32.7442 159.244 32.7442C160.803 32.7442 162.007 32.2083 163.056 31.1076C164.105 30.0069 164.667 28.7028 164.693 27.1695C164.718 25.5588 164.183 24.1772 163.03 22.9732C161.904 21.7724 160.548 21.2334 158.937 21.3108C157.452 21.3625 156.174 21.9758 155.125 23.1281C154.076 24.2805 153.592 25.6104 153.614 27.1437H153.617Z" fill="#444444"></path>
<path d="M181.571 28.0349C181.571 29.9265 180.958 31.5146 179.728 32.767C178.527 34.0195 176.991 34.6586 175.125 34.6586C173.259 34.6586 171.723 34.0195 170.496 32.767C169.295 31.5146 168.679 29.9265 168.679 28.0349V19.723H170.648V28.2673C170.648 29.4939 171.084 30.543 171.978 31.4404C172.872 32.3087 173.921 32.7444 175.125 32.7444C176.329 32.7444 177.349 32.3087 178.246 31.4404C179.14 30.5462 179.602 29.4971 179.602 28.2673V19.723H181.571V28.0349Z" fill="#444444"></path>
<path d="M198.476 29.5198C197.94 31.0789 197.017 32.3345 195.713 33.2545C194.409 34.1745 192.976 34.6361 191.391 34.6619C189.396 34.6877 187.63 33.9711 186.097 32.4863C184.564 30.9788 183.769 29.2131 183.744 27.1408C183.692 24.9652 184.46 23.0736 186.045 21.5145C187.656 19.9296 189.525 19.1872 191.697 19.3163C193.64 19.4454 195.329 20.2363 196.762 21.7211C198.143 23.1801 198.834 24.8167 198.834 26.6308V27.6799H185.739C185.893 29.1389 186.507 30.3655 187.604 31.3113C188.705 32.2571 189.983 32.7445 191.465 32.7187C193.766 32.6928 195.403 31.6179 196.4 29.523H198.473L198.476 29.5198ZM196.917 25.8884C196.636 24.5326 195.997 23.4319 194.999 22.5894C194.002 21.7437 192.801 21.3112 191.394 21.2853C189.986 21.2595 188.76 21.6953 187.711 22.5378C186.662 23.3835 186.023 24.5068 185.742 25.8884H196.92H196.917Z" fill="#444444"></path>
<path d="M202.465 34.3027H200.419V19.7221H202.236V21.7945C202.646 21.0004 203.26 20.4129 204.054 19.9771C204.796 19.593 205.538 19.4155 206.303 19.4413V21.3845C205.409 21.4103 204.667 21.6653 204.102 22.1269C203.54 22.5885 203.156 22.9952 202.95 23.3277C202.617 23.8894 202.462 24.6318 202.462 25.5776V34.2995L202.465 34.3027Z" fill="#444444"></path>
<defs>
<linearGradient id="paint0_linear_2798_4240" x1="63.6154" y1="19.4404" x2="86.0902" y2="39.6768" gradientUnits="userSpaceOnUse">
<stop offset="0.3101" stop-color="#4DAE4B"></stop>
<stop offset="1" stop-color="#00D410"></stop>
</linearGradient>
</defs>
</svg>