<svg width="259" height="54" viewBox="0 0 259 54" fill="none" xmlns="http://www.w3.org/2000/svg">
<path d="M101.123 16.1415C99.1481 14.0299 96.6214 12.5132 93.8288 11.7655L93.9567 8C97.7379 8.83389 101.177 10.7954 103.821 13.6232C106.464 16.4519 108.188 20.0154 108.766 23.8439L104.997 23.7133C104.44 20.8762 103.097 18.2531 101.123 16.1415Z" fill="#2285D0"></path>
<path d="M72.0662 20.601C73.2141 17.3118 75.2386 14.3996 77.9228 12.1787C80.6061 9.95779 83.8462 8.51238 87.292 8L87.1642 11.7655C83.7415 12.4307 80.645 14.2375 78.3815 16.8902C76.117 19.542 74.8189 22.884 74.6994 26.3687C74.5863 30.1453 75.8631 33.8311 78.2888 36.7284C80.7136 39.6248 84.1186 41.5307 87.8554 42.0829C91.5931 42.6351 95.4021 41.7957 98.5616 39.7249C101.721 37.6531 104.01 34.4945 104.994 30.8467L108.766 30.9746C108.022 34.3778 106.362 37.5132 103.965 40.0408C101.568 42.5684 98.5255 44.3928 95.1667 45.3166C91.808 46.2403 88.2603 46.2273 84.908 45.2795C81.5558 44.3326 78.526 42.486 76.1476 39.9407C73.7691 37.3965 72.131 34.249 71.412 30.8402C70.6921 27.4305 70.9191 23.8902 72.0662 20.601Z" fill="url(#paint0_linear_2798_2459)"></path>
<path d="M137.613 27.1646C137.074 28.736 136.147 29.9985 134.832 30.9256C133.517 31.8528 132.076 32.319 130.479 32.3452C128.467 32.3714 126.692 31.6485 125.146 30.1556C123.596 28.6313 122.794 26.8555 122.768 24.7655C122.716 22.5759 123.491 20.6692 125.089 19.0977C126.712 17.5 128.593 16.751 130.783 16.8819C132.742 17.0129 134.444 17.8091 135.885 19.302C137.278 20.7687 137.969 22.4187 137.969 24.2521V25.3102H124.78C124.937 26.7769 125.555 28.0184 126.66 28.9718C127.771 29.9251 129.059 30.4123 130.552 30.3913C132.873 30.3651 134.523 29.2808 135.523 27.1698H137.608L137.613 27.1646ZM136.042 23.5031C135.759 22.1359 135.115 21.0306 134.109 20.1768C133.103 19.3282 131.893 18.8882 130.474 18.862C129.054 18.8358 127.818 19.2758 126.765 20.1244C125.707 20.973 125.062 22.1097 124.78 23.4978H136.042V23.5031Z" fill="#444444"></path>
<path d="M141.657 37.1327H139.75V24.6342C139.75 22.5232 140.525 20.6899 142.044 19.1708C143.59 17.6255 145.423 16.8817 147.534 16.955C149.572 17.0074 151.295 17.7774 152.715 19.2755C154.134 20.7737 154.852 22.5494 154.852 24.6081C154.852 26.6667 154.077 28.6048 152.557 30.1501C151.038 31.6692 149.205 32.4183 147.094 32.3397C144.931 32.2611 143.123 31.3863 141.657 29.7363V37.1327ZM147.508 18.8879C145.884 18.8093 144.517 19.3541 143.359 20.5641C142.228 21.7742 141.683 23.1675 141.709 24.7914C141.735 26.3367 142.301 27.6515 143.359 28.762C144.417 29.8725 145.706 30.412 147.225 30.412C148.744 30.412 150.085 29.8725 151.196 28.762C152.306 27.6515 152.872 26.3419 152.898 24.7704C152.924 23.2252 152.411 21.8842 151.353 20.7265C150.295 19.5689 149.032 18.9508 147.513 18.8984L147.508 18.8879Z" fill="#444444"></path>
<path d="M171.834 31.984H169.928V29.6897C168.33 31.5178 166.371 32.3979 164.05 32.3193C162.013 32.2407 160.289 31.4707 158.87 29.9726C157.45 28.4797 156.732 26.6987 156.732 24.64C156.732 22.5814 157.508 20.6485 159.027 19.1242C160.546 17.5789 162.374 16.856 164.516 16.9346C166.58 17.0132 168.33 17.7832 169.776 19.3075C171.216 20.8004 171.913 22.5814 171.839 24.6138V31.984H171.834ZM158.718 24.4829C158.692 26.0282 159.184 27.3953 160.237 28.553C161.29 29.7106 162.584 30.3078 164.076 30.3811C165.7 30.4597 167.067 29.894 168.199 28.7049C169.357 27.4949 169.901 26.0753 169.875 24.4515C169.849 22.9062 169.283 21.5914 168.225 20.4809C167.167 19.3704 165.878 18.8308 164.385 18.8308C162.814 18.8308 161.499 19.3704 160.394 20.4809C159.283 21.5914 158.744 22.9009 158.718 24.4777V24.4829Z" fill="#444444"></path>
<path d="M179.409 37.1069H177.298L179.514 31.5124L173.894 17.2906H176.031L180.719 28.9405L185.674 17.2906H187.738L179.415 37.1069H179.409Z" fill="#444444"></path>
<defs>
<linearGradient id="paint0_linear_2798_2459" x1="98.3817" y1="19.4404" x2="75.9069" y2="39.6768" gradientUnits="userSpaceOnUse">
<stop offset="0.3101" stop-color="#2285D0"></stop>
<stop offset="1" stop-color="#00B8FE"></stop>
</linearGradient>
</defs>
</svg>