<svg width="261" height="54" viewBox="0 0 261 54" fill="none" xmlns="http://www.w3.org/2000/svg">
<path d="M101.123 37.8585C99.1481 39.9701 96.6214 41.4868 93.8288 42.2345L93.9567 46C97.7379 45.1661 101.177 43.2046 103.821 40.3768C106.464 37.5481 108.188 33.9846 108.766 30.1561L104.997 30.2867C104.44 33.1238 103.097 35.7469 101.123 37.8585Z" fill="#F75C03"></path>
<path d="M72.0662 33.399C73.2141 36.6882 75.2386 39.6004 77.9228 41.8213C80.6061 44.0422 83.8462 45.4876 87.292 46L87.1642 42.2345C83.7415 41.5693 80.645 39.7625 78.3815 37.1098C76.117 34.458 74.8189 31.116 74.6994 27.6313C74.5863 23.8547 75.8631 20.1689 78.2888 17.2716C80.7136 14.3752 84.1186 12.4693 87.8554 11.9171C91.5931 11.3649 95.4021 12.2043 98.5616 14.2751C101.721 16.3469 104.01 19.5055 104.994 23.1533L108.766 23.0254C108.022 19.6222 106.362 16.4868 103.965 13.9592C101.568 11.4316 98.5255 9.60721 95.1667 8.68345C91.808 7.75969 88.2603 7.77266 84.908 8.72051C81.5558 9.66744 78.526 11.514 76.1476 14.0593C73.7691 16.6035 72.131 19.751 71.412 23.1598C70.6921 26.5695 70.9191 30.1098 72.0662 33.399Z" fill="url(#paint0_linear_2798_2496)"></path>
<path d="M137.253 31.8141C136.726 33.347 135.818 34.5815 134.536 35.486C133.254 36.3905 131.845 36.8443 130.286 36.8697C128.325 36.8951 126.589 36.1905 125.082 34.7307C123.574 33.2454 122.793 31.5126 122.768 29.4751C122.717 27.3361 123.473 25.4763 125.031 23.9434C126.614 22.3852 128.452 21.6552 130.588 21.7822C132.498 21.9091 134.158 22.6867 135.567 24.1466C136.926 25.581 137.605 27.1901 137.605 28.9737V30.0051H124.729C124.882 31.4396 125.485 32.6456 126.564 33.5755C127.646 34.5053 128.903 34.9846 130.363 34.9592C132.625 34.9338 134.234 33.877 135.215 31.8141H137.253ZM135.72 28.2437C135.444 26.9108 134.815 25.8286 133.835 25.0003C132.854 24.1719 131.673 23.7435 130.29 23.7181C128.906 23.6927 127.7 24.1212 126.668 24.9495C125.637 25.781 125.009 26.8854 124.733 28.2437H135.723H135.72Z" fill="#444444"></path>
<path d="M147.186 36.5174H145.199L139.315 22.1821H141.328L146.205 34.0007L151.058 22.1821H153.172L147.186 36.5174Z" fill="#444444"></path>
<path d="M167.253 34.7085C165.771 36.1938 163.984 36.9206 161.921 36.8476C159.935 36.7968 158.224 36.0415 156.84 34.5848C155.457 33.1249 154.777 31.3921 154.777 29.38C154.777 27.3679 155.533 25.4827 157.015 23.9975C158.5 22.49 160.284 21.76 162.346 21.833C164.333 21.9092 166.044 22.6645 167.428 24.1466C168.811 25.6065 169.516 27.3393 169.516 29.3514C169.516 31.3635 168.76 33.1979 167.253 34.7085ZM161.947 34.9593C163.53 35.0354 164.863 34.5054 165.971 33.3248C167.104 32.1442 167.631 30.7859 167.605 29.1991C167.554 27.6916 167.002 26.4063 165.971 25.3272C164.939 24.245 163.708 23.7182 162.248 23.7182C160.715 23.6928 159.43 24.245 158.351 25.3272C157.272 26.4094 156.742 27.6916 156.716 29.2245C156.691 30.732 157.17 32.0649 158.199 33.1979C159.23 34.3309 160.461 34.9085 161.947 34.9593Z" fill="#444444"></path>
<path d="M173.363 36.5175H171.452V17.1296H173.363V36.5175Z" fill="#444444"></path>
<path d="M183.394 36.5174H181.407L175.523 22.1821H177.536L182.413 34.0007L187.266 22.1821H189.38L183.394 36.5174Z" fill="#444444"></path>
<defs>
<linearGradient id="paint0_linear_2798_2496" x1="98.3817" y1="34.5596" x2="75.9069" y2="14.3232" gradientUnits="userSpaceOnUse">
<stop offset="0.3101" stop-color="#F75C03"></stop>
<stop offset="1" stop-color="#FAA675"></stop>
</linearGradient>
</defs>
</svg>