<svg width="261" height="54" viewBox="0 0 261 54" fill="none" xmlns="http://www.w3.org/2000/svg">
<path d="M74.1226 16.1415C72.1481 14.0299 69.6214 12.5132 66.8288 11.7655L66.9567 8C70.7379 8.83389 74.1772 10.7954 76.8207 13.6232C79.4641 16.4519 81.1884 20.0154 81.7656 23.8439L77.9974 23.7133C77.4396 20.8762 76.097 18.2531 74.1226 16.1415Z" fill="#2285D0"></path>
<path d="M45.0662 20.601C46.2141 17.3118 48.2386 14.3996 50.9228 12.1787C53.6061 9.95779 56.8462 8.51238 60.292 8L60.1642 11.7655C56.7415 12.4307 53.645 14.2375 51.3815 16.8902C49.117 19.542 47.8189 22.884 47.6994 26.3687C47.5863 30.1453 48.8631 33.8311 51.2888 36.7284C53.7136 39.6248 57.1186 41.5307 60.8554 42.0829C64.5931 42.6351 68.4021 41.7957 71.5616 39.7249C74.7211 37.6531 77.0097 34.4945 77.9937 30.8467L81.7656 30.9746C81.0216 34.3778 79.3622 37.5132 76.9652 40.0408C74.5682 42.5684 71.5255 44.3928 68.1667 45.3166C64.808 46.2403 61.2603 46.2273 57.908 45.2795C54.5558 44.3326 51.526 42.486 49.1476 39.9407C46.7691 37.3965 45.131 34.249 44.412 30.8402C43.6921 27.4305 43.9191 23.8902 45.0662 20.601Z" fill="url(#paint0_linear_2798_2260)"></path>
<path d="M97.6649 39.3985H95.7656V27C95.7656 24.9086 96.5339 23.0947 98.049 21.5796C99.5855 20.0431 101.399 19.2962 103.491 19.3816C105.518 19.4243 107.225 20.1925 108.634 21.6863C110.042 23.1801 110.768 24.93 110.768 26.9786C110.768 29.0273 109.999 30.9479 108.484 32.4844C106.969 33.9995 105.155 34.7464 103.064 34.661C100.909 34.5757 99.116 33.7221 97.6649 32.0789V39.4199V39.3985ZM103.469 21.2808C101.848 21.1955 100.503 21.7503 99.3508 22.9454C98.2197 24.1404 97.6862 25.5275 97.7076 27.1493C97.7289 28.6858 98.3051 29.9876 99.3508 31.0973C100.396 32.2069 101.677 32.7404 103.192 32.7404C104.707 32.7404 106.03 32.2069 107.14 31.0973C108.25 29.9876 108.804 28.6858 108.826 27.128C108.847 25.5915 108.335 24.2684 107.289 23.1161C106.244 21.9637 104.985 21.3449 103.469 21.3022V21.2808Z" fill="#444444"></path>
<path d="M127.648 34.2769H125.748V31.9935C124.169 33.8074 122.227 34.6824 119.922 34.597C117.895 34.5116 116.188 33.7434 114.78 32.2709C113.371 30.7771 112.646 29.0272 112.646 26.9786C112.646 24.93 113.414 23.0094 114.929 21.4942C116.444 19.9577 118.258 19.2322 120.371 19.3175C122.419 19.4029 124.169 20.1711 125.599 21.6649C127.029 23.1587 127.733 24.9086 127.648 26.9359V34.2556V34.2769ZM114.63 26.8292C114.609 28.3657 115.1 29.7101 116.145 30.8838C117.191 32.0362 118.471 32.6337 119.965 32.6977C121.587 32.7831 122.931 32.2069 124.062 31.0332C125.215 29.8382 125.748 28.4297 125.727 26.8079C125.706 25.2714 125.129 23.9697 124.084 22.86C123.038 21.7503 121.758 21.2168 120.264 21.2168C118.706 21.2168 117.404 21.7503 116.295 22.86C115.185 23.9697 114.651 25.2714 114.63 26.8292Z" fill="#444444"></path>
<path d="M135.181 39.3772H133.09L135.288 33.8288L129.718 19.7017H131.852L136.504 31.268L141.412 19.7017H143.461L135.202 39.3772H135.181Z" fill="#444444"></path>
<path d="M166.038 34.277H164.011V25.3355C164.011 24.2045 163.67 23.2442 163.03 22.4546C162.389 21.665 161.514 21.2595 160.469 21.2595C159.423 21.2595 158.463 21.6223 157.673 22.3052C156.905 22.9881 156.521 23.863 156.521 24.9087V34.2983H154.472V24.8873C154.472 23.8417 154.088 22.9667 153.298 22.2838C152.53 21.601 151.613 21.2382 150.524 21.2382C149.436 21.2382 148.625 21.6436 147.985 22.4332C147.345 23.2228 147.046 24.1831 147.046 25.3141V34.277H145.019V25.5702C145.019 23.7563 145.531 22.2625 146.576 21.1742C147.558 20.1285 148.838 19.531 150.418 19.4029C152.552 19.2322 154.237 20.1498 155.475 22.1131C156.734 20.1498 158.42 19.2109 160.533 19.4029C162.112 19.531 163.392 20.1285 164.395 21.1742C165.441 22.2838 165.974 23.7563 165.974 25.5702V34.2983L166.038 34.277Z" fill="#444444"></path>
<path d="M182.897 29.4967C182.364 31.0545 181.446 32.3136 180.123 33.2312C178.821 34.1488 177.391 34.6183 175.791 34.6396C173.785 34.661 172.035 33.9568 170.499 32.463C168.962 30.9478 168.172 29.1766 168.151 27.1066C168.108 24.9299 168.877 23.0307 170.456 21.4728C172.078 19.8937 173.934 19.1468 176.111 19.2748C178.053 19.4029 179.739 20.1924 181.169 21.6862C182.556 23.1374 183.239 24.7805 183.239 26.5944V27.6401H170.136C170.285 29.0912 170.904 30.329 172.014 31.2679C173.123 32.2069 174.404 32.6977 175.876 32.6764C178.181 32.655 179.824 31.5667 180.806 29.4754H182.876L182.897 29.4967ZM181.339 25.8689C181.062 24.5031 180.422 23.4148 179.419 22.5612C178.416 21.7076 177.221 21.2808 175.812 21.2594C174.404 21.2381 173.166 21.6649 172.12 22.5185C171.075 23.3721 170.434 24.4818 170.157 25.8689H181.339Z" fill="#444444"></path>
<path d="M197.878 34.2769H195.914V25.7622C195.914 24.5245 195.445 23.4788 194.548 22.5826C193.652 21.6863 192.628 21.2595 191.433 21.2595C190.238 21.2595 189.149 21.6863 188.253 22.5826C187.357 23.4788 186.93 24.5245 186.93 25.7622V34.2769H184.967V25.9543C184.967 24.055 185.586 22.4972 186.802 21.2381C188.018 19.9791 189.576 19.3389 191.433 19.3389C193.289 19.3389 194.805 19.9791 196.042 21.2381C197.28 22.4972 197.878 24.055 197.878 25.9543V34.2769Z" fill="#444444"></path>
<path d="M205.261 34.597C201.697 34.597 199.947 33.0819 199.947 30.0729V14.5801H201.911V19.6803H205.261V21.4943H201.911V29.7315C201.911 31.9082 203.042 32.9752 205.261 32.9752V34.597Z" fill="#444444"></path>
<path d="M208.996 30.4571C208.996 30.9479 209.273 31.4601 209.807 31.9936C210.34 32.5271 210.938 32.7832 211.557 32.7619C212.368 32.7405 213.008 32.5058 213.499 32.015C213.925 31.5882 214.139 30.9906 214.16 30.2651C214.182 29.006 213.477 28.1737 212.026 27.7043L210.319 27.1708C208.526 26.6159 207.587 25.3782 207.502 23.5216C207.459 22.3906 207.844 21.4303 208.633 20.6194C209.444 19.8298 210.426 19.3816 211.578 19.339C212.581 19.2963 213.499 19.6164 214.352 20.3206C215.227 21.0035 215.675 21.8571 215.761 22.8814V23.3082H213.733V22.9668C213.733 21.9425 212.709 21.2596 211.578 21.2596C210.468 21.2809 209.551 22.1345 209.529 23.2655C209.444 24.3112 210.084 25.0581 211.407 25.4849L213.093 26.0397C215.035 26.7013 216.081 28.003 216.209 29.9236C216.316 31.2254 215.846 32.3777 214.822 33.3594C213.797 34.2983 212.624 34.7465 211.279 34.6611C210.042 34.5758 209.017 34.0636 208.185 33.1673C207.374 32.271 206.947 31.204 206.947 29.945H208.975V30.4358L208.996 30.4571Z" fill="#444444"></path>
<defs>
<linearGradient id="paint0_linear_2798_2260" x1="71.3817" y1="19.4404" x2="48.9069" y2="39.6768" gradientUnits="userSpaceOnUse">
<stop offset="0.3101" stop-color="#2285D0"></stop>
<stop offset="1" stop-color="#00B8FE"></stop>
</linearGradient>
</defs>
</svg>