<svg width="259" height="54" viewBox="0 0 259 54" fill="none" xmlns="http://www.w3.org/2000/svg">
<path d="M34.1226 16.1415C32.1481 14.0299 29.6214 12.5132 26.8288 11.7655L26.9567 8C30.7379 8.83389 34.1772 10.7954 36.8207 13.6232C39.4641 16.4519 41.1884 20.0154 41.7656 23.8439L37.9974 23.7133C37.4396 20.8762 36.097 18.2531 34.1226 16.1415Z" fill="#2285D0"></path>
<path d="M5.06615 20.601C6.21414 17.3118 8.23864 14.3996 10.9228 12.1787C13.6061 9.95779 16.8462 8.51238 20.292 8L20.1642 11.7655C16.7415 12.4307 13.645 14.2375 11.3815 16.8902C9.117 19.542 7.81891 22.884 7.69939 26.3687C7.58635 30.1453 8.86313 33.8311 11.2888 36.7284C13.7136 39.6248 17.1186 41.5307 20.8554 42.0829C24.5931 42.6351 28.4021 41.7957 31.5616 39.7249C34.7211 37.6531 37.0097 34.4945 37.9937 30.8467L41.7656 30.9746C41.0216 34.3778 39.3622 37.5132 36.9652 40.0408C34.5682 42.5684 31.5255 44.3928 28.1667 45.3166C24.808 46.2403 21.2603 46.2273 17.908 45.2795C14.5558 44.3326 11.526 42.486 9.14758 39.9407C6.76914 37.3965 5.13101 34.249 4.41201 30.8402C3.69209 27.4305 3.91909 23.8902 5.06615 20.601Z" fill="url(#paint0_linear_2798_2313)"></path>
<path d="M57.6405 39.3007H55.7656V27.0114C55.7656 24.935 56.526 23.1348 58.0207 21.6401C59.5154 20.1454 61.3384 19.385 63.418 19.4597C65.4196 19.5117 67.1158 20.2721 68.5098 21.7408C69.9038 23.2096 70.6122 24.9577 70.6122 26.9854C70.6122 29.013 69.8518 30.9139 68.3571 32.4314C66.8624 33.9261 65.0622 34.6605 62.9858 34.5858C60.8575 34.511 59.0833 33.6467 57.6405 32.0252V39.2974V39.3007ZM63.392 21.3639C61.7965 21.2892 60.4545 21.8188 59.314 23.0113C58.1994 24.2039 57.6665 25.5719 57.6925 27.1673C57.7185 28.6881 58.2742 29.9781 59.314 31.0699C60.3538 32.1617 61.6211 32.6914 63.1158 32.6914C64.6105 32.6914 65.9265 32.1585 67.0183 31.0699C68.1102 29.9813 68.6658 28.6881 68.6918 27.1414C68.7178 25.6206 68.2109 24.3046 67.1711 23.1641C66.1313 22.0235 64.89 21.4159 63.3953 21.3639H63.392Z" fill="#444444"></path>
<path d="M87.3114 34.2348H85.4365V31.9797C83.867 33.7799 81.9401 34.641 79.659 34.563C77.6574 34.4882 75.9612 33.7279 74.5672 32.2559C73.1732 30.7871 72.4648 29.039 72.4648 27.0113C72.4648 24.9837 73.2252 23.0828 74.7199 21.5881C76.2147 20.0673 78.0148 19.359 80.1172 19.4337C82.1449 19.5084 83.867 20.2688 85.287 21.7635C86.707 23.2323 87.3894 24.9804 87.3147 26.9821V34.2283L87.3114 34.2348ZM74.4145 26.8619C74.3885 28.3826 74.8694 29.7246 75.9092 30.8651C76.949 32.0057 78.2163 32.5873 79.685 32.6653C81.2805 32.74 82.6225 32.1844 83.7403 31.0179C84.8809 29.8253 85.4138 28.4346 85.3878 26.8359C85.3618 25.3151 84.8061 24.0251 83.7663 22.9333C82.7265 21.8448 81.4592 21.3119 79.9905 21.3119C78.4438 21.3119 77.1537 21.8448 76.0619 22.9333C74.9734 24.0219 74.4405 25.3151 74.4145 26.8619Z" fill="#444444"></path>
<path d="M94.7582 39.2746H92.6819L94.8622 33.7766L89.335 19.7911H91.4373L96.0483 31.2421L100.913 19.7911H102.94L94.755 39.2746H94.7582Z" fill="#444444"></path>
<path d="M106.414 34.2349H104.387V19.7912H106.187V21.8448C106.593 21.0585 107.201 20.4768 107.987 20.0447C108.721 19.6645 109.456 19.4858 110.216 19.5118V21.4387C109.329 21.4647 108.595 21.7181 108.036 22.173C107.477 22.6279 107.097 23.0341 106.895 23.3623C106.567 23.9212 106.414 24.6556 106.414 25.5914V34.2316V34.2349Z" fill="#444444"></path>
<path d="M124.276 32.4086C122.782 33.9033 120.982 34.6377 118.905 34.5629C116.904 34.5109 115.181 33.7506 113.787 32.2818C112.393 30.8131 111.711 29.0649 111.711 27.0373C111.711 25.0096 112.471 23.1087 113.966 21.614C115.461 20.0933 117.261 19.3589 119.337 19.4336C121.339 19.5084 123.061 20.2687 124.455 21.7635C125.849 23.2322 126.558 24.9804 126.558 27.008C126.558 29.0357 125.797 30.8846 124.276 32.4053V32.4086ZM118.931 32.662C120.527 32.7367 121.869 32.2071 122.986 31.0146C124.127 29.822 124.66 28.454 124.634 26.8586C124.582 25.3378 124.026 24.0478 122.986 22.956C121.947 21.8675 120.705 21.3346 119.237 21.3346C117.69 21.3086 116.4 21.8675 115.308 22.956C114.216 24.0446 113.687 25.3378 113.661 26.8846C113.635 28.4053 114.116 29.7473 115.155 30.8878C116.195 32.0284 117.436 32.61 118.931 32.662Z" fill="#444444"></path>
<path d="M130.434 34.2348H128.507V14.6993H130.434V34.2348Z" fill="#444444"></path>
<path d="M134.538 34.2348H132.611V14.6993H134.538V34.2348Z" fill="#444444"></path>
<path d="M151.487 30.4071C149.966 33.2178 147.61 34.5891 144.442 34.5631C142.34 34.5371 140.539 33.8027 139.019 32.36C137.498 30.9173 136.738 29.1431 136.712 27.0635C136.686 24.9611 137.42 23.1869 138.941 21.6922C140.487 20.1974 142.31 19.4111 144.439 19.3851C145.959 19.3591 147.376 19.7653 148.695 20.5744C149.937 21.3607 150.85 22.3226 151.383 23.5118L151.662 24.1455H149.482C148.393 22.2966 146.746 21.3347 144.517 21.2827C143.022 21.2567 141.703 21.7897 140.513 22.9042C139.272 24.0447 138.665 25.4127 138.665 26.9822C138.665 28.5517 139.246 29.8969 140.387 31.0375C141.527 32.152 142.895 32.7109 144.465 32.6849C146.72 32.6589 148.393 31.7491 149.508 29.9749H151.688L151.487 30.4071Z" fill="#444444"></path>
<path d="M167.526 34.2348H165.651V31.9797C164.082 33.7799 162.155 34.641 159.874 34.563C157.872 34.4882 156.176 33.7279 154.782 32.2559C153.388 30.7871 152.68 29.039 152.68 27.0113C152.68 24.9837 153.44 23.0828 154.935 21.5881C156.43 20.0673 158.23 19.359 160.332 19.4337C162.36 19.5084 164.082 20.2688 165.502 21.7635C166.922 23.2323 167.604 24.9804 167.53 26.9821V34.2283L167.526 34.2348ZM154.629 26.8619C154.603 28.3826 155.084 29.7246 156.124 30.8651C157.164 32.0057 158.431 32.5873 159.9 32.6653C161.495 32.74 162.837 32.1844 163.955 31.0179C165.096 29.8253 165.629 28.4346 165.603 26.8359C165.577 25.3151 165.021 24.0251 163.981 22.9333C162.941 21.8448 161.677 21.3119 160.205 21.3119C158.659 21.3119 157.369 21.8448 156.277 22.9333C155.188 24.0219 154.655 25.3151 154.629 26.8619Z" fill="#444444"></path>
<path d="M171.478 34.2348H169.551V14.6993H171.478V34.2348Z" fill="#444444"></path>
<path d="M188.426 30.4071C186.905 33.2178 184.55 34.5891 181.381 34.5631C179.279 34.5371 177.479 33.8027 175.958 32.36C174.437 30.9173 173.677 29.1431 173.651 27.0635C173.625 24.9611 174.359 23.1869 175.88 21.6922C177.427 20.1974 179.25 19.4111 181.378 19.3851C182.899 19.3591 184.316 19.7653 185.635 20.5744C186.876 21.3607 187.789 22.3226 188.322 23.5118L188.602 24.1455H186.421C185.333 22.2966 183.685 21.3347 181.456 21.2827C179.961 21.2567 178.642 21.7897 177.453 22.9042C176.212 24.0447 175.604 25.4127 175.604 26.9822C175.604 28.5517 176.186 29.8969 177.326 31.0375C178.467 32.152 179.835 32.7109 181.404 32.6849C183.659 32.6589 185.333 31.7491 186.447 29.9749H188.628L188.426 30.4071Z" fill="#444444"></path>
<path d="M202.415 28.0252C202.415 29.9001 201.808 31.4695 200.592 32.7141C199.403 33.9553 197.882 34.589 196.034 34.589C194.185 34.589 192.664 33.9553 191.449 32.7141C190.256 31.4728 189.648 29.9001 189.648 28.0252V19.7911H191.598V28.2526C191.598 29.4679 192.03 30.5077 192.914 31.3948C193.801 32.2559 194.841 32.6881 196.03 32.6881C197.22 32.6881 198.233 32.2559 199.12 31.3948C200.008 30.5077 200.462 29.4679 200.462 28.2526V19.7911H202.412V28.0252H202.415Z" fill="#444444"></path>
<path d="M206.493 34.2348H204.566V14.6993H206.493V34.2348Z" fill="#444444"></path>
<path d="M223.494 34.2348H221.619V31.9797C220.05 33.7799 218.123 34.641 215.842 34.563C213.84 34.4882 212.144 33.7279 210.75 32.2559C209.356 30.7871 208.647 29.039 208.647 27.0113C208.647 24.9837 209.408 23.0828 210.903 21.5881C212.397 20.0673 214.197 19.359 216.3 19.4337C218.327 19.5084 220.05 20.2688 221.47 21.7635C222.89 23.2323 223.572 24.9804 223.497 26.9821V34.2283L223.494 34.2348ZM210.597 26.8619C210.571 28.3826 211.052 29.7246 212.092 30.8651C213.132 32.0057 214.399 32.5873 215.868 32.6653C217.463 32.74 218.805 32.1844 219.923 31.0179C221.063 29.8253 221.596 28.4346 221.57 26.8359C221.544 25.3151 220.989 24.0251 219.949 22.9333C218.909 21.8448 217.645 21.3119 216.173 21.3119C214.626 21.3119 213.336 21.8448 212.245 22.9333C211.156 24.0219 210.623 25.3151 210.597 26.8619Z" fill="#444444"></path>
<path d="M230.789 34.537C227.267 34.537 225.519 33.0423 225.519 30.0528V14.7253H227.468V19.7652H230.786V21.5654H227.468V29.7246C227.468 31.879 228.583 32.9416 230.786 32.9416V34.537H230.789Z" fill="#444444"></path>
<path d="M245.054 32.4086C243.559 33.9033 241.759 34.6377 239.682 34.5629C237.681 34.5109 235.959 33.7506 234.565 32.2818C233.171 30.8131 232.488 29.0649 232.488 27.0373C232.488 25.0096 233.249 23.1087 234.743 21.614C236.238 20.0933 238.038 19.3589 240.115 19.4336C242.116 19.5084 243.838 20.2687 245.232 21.7635C246.626 23.2322 247.335 24.9804 247.335 27.008C247.335 29.0357 246.575 30.8846 245.054 32.4053V32.4086ZM239.708 32.662C241.304 32.7367 242.646 32.2071 243.764 31.0146C244.904 29.822 245.437 28.454 245.411 26.8586C245.359 25.3378 244.804 24.0478 243.764 22.956C242.724 21.8675 241.483 21.3346 240.014 21.3346C238.467 21.3086 237.177 21.8675 236.085 22.956C234.994 24.0446 234.464 25.3378 234.438 26.8846C234.412 28.4053 234.893 29.7473 235.933 30.8878C236.972 32.0284 238.214 32.61 239.708 32.662Z" fill="#444444"></path>
<path d="M251.159 34.2349H249.132V19.7912H250.932V21.8448C251.338 21.0585 251.946 20.4768 252.732 20.0447C253.467 19.6645 254.201 19.4858 254.961 19.5118V21.4387C254.074 21.4647 253.34 21.7181 252.781 22.173C252.225 22.6279 251.845 23.0341 251.64 23.3623C251.312 23.9212 251.159 24.6556 251.159 25.5914V34.2316V34.2349Z" fill="#444444"></path>
<defs>
<linearGradient id="paint0_linear_2798_2313" x1="31.3817" y1="19.4404" x2="8.90691" y2="39.6768" gradientUnits="userSpaceOnUse">
<stop offset="0.3101" stop-color="#2285D0"></stop>
<stop offset="1" stop-color="#00B8FE"></stop>
</linearGradient>
</defs>
</svg>