<svg width="260" height="54" viewBox="0 0 260 54" fill="none" xmlns="http://www.w3.org/2000/svg">
<path d="M61.1226 16.1415C59.1481 14.0299 56.6214 12.5132 53.8288 11.7655L53.9567 8C57.7379 8.83389 61.1772 10.7954 63.8207 13.6232C66.4641 16.4519 68.1884 20.0154 68.7656 23.8439L64.9974 23.7133C64.4396 20.8762 63.097 18.2531 61.1226 16.1415Z" fill="#2285D0"></path>
<path d="M32.0662 20.601C33.2141 17.3118 35.2386 14.3996 37.9228 12.1787C40.6061 9.95779 43.8462 8.51238 47.292 8L47.1642 11.7655C43.7415 12.4307 40.645 14.2375 38.3815 16.8902C36.117 19.542 34.8189 22.884 34.6994 26.3687C34.5864 30.1453 35.8631 33.8311 38.2888 36.7284C40.7136 39.6248 44.1186 41.5307 47.8554 42.0829C51.5931 42.6351 55.4021 41.7957 58.5616 39.7249C61.7211 37.6531 64.0097 34.4945 64.9937 30.8467L68.7656 30.9746C68.0216 34.3778 66.3622 37.5132 63.9652 40.0408C61.5682 42.5684 58.5255 44.3928 55.1667 45.3166C51.808 46.2403 48.2603 46.2273 44.9081 45.2795C41.5558 44.3326 38.526 42.486 36.1476 39.9407C33.7691 37.3965 32.131 34.249 31.412 30.8402C30.6921 27.4305 30.9191 23.8902 32.0662 20.601Z" fill="url(#paint0_linear_2798_2162)"></path>
<path d="M88.0546 36.9256C84.5199 36.9256 82.7656 35.4269 82.7656 32.425V17.0476H84.7235V22.107H88.0546V23.9133H84.7235V32.1001C84.7235 34.2616 85.8411 35.3272 88.0546 35.3272V36.9299V36.9256Z" fill="#444444"></path>
<path d="M92.9362 20.4048H91.0303V17.0217H92.9362V20.4048ZM92.9362 36.6225H91.0303V22.1331H92.9362V36.6225Z" fill="#444444"></path>
<path d="M117.185 36.6226H115.175V27.7254C115.175 26.6078 114.846 25.6418 114.209 24.8535C113.573 24.0651 112.711 23.6579 111.667 23.6579C110.623 23.6579 109.683 24.0131 108.894 24.7019C108.132 25.3863 107.751 26.2526 107.751 27.2965V36.6269H105.719V27.2922C105.719 26.2483 105.338 25.3863 104.55 24.6975C103.787 24.0131 102.873 23.6536 101.803 23.6536C100.734 23.6536 99.9235 24.0608 99.2868 24.8492C98.65 25.6375 98.3468 26.5775 98.3468 27.721V36.6183H96.3369V27.9506C96.3369 26.1443 96.8437 24.6716 97.8876 23.58C98.8536 22.536 100.123 21.9513 101.7 21.8257C103.809 21.6481 105.485 22.562 106.733 24.5199C107.98 22.562 109.657 21.6481 111.766 21.8257C113.343 21.9513 114.612 22.536 115.604 23.58C116.648 24.6716 117.181 26.1487 117.181 27.9506V36.6183L117.185 36.6226Z" fill="#444444"></path>
<path d="M135.188 31.8663C134.655 33.417 133.737 34.6645 132.442 35.5785C131.146 36.4925 129.721 36.9516 128.145 36.9776C126.161 37.0036 124.406 36.2932 122.882 34.8161C121.357 33.3174 120.569 31.563 120.543 29.5012C120.491 27.3397 121.253 25.4597 122.83 23.909C124.432 22.3323 126.286 21.5959 128.448 21.7215C130.38 21.8471 132.056 22.6355 133.481 24.1126C134.854 25.5637 135.539 27.1881 135.539 28.9944V30.0383H122.522C122.674 31.4894 123.284 32.7066 124.376 33.6466C125.468 34.5865 126.741 35.0717 128.214 35.0457C130.501 35.0197 132.13 33.9541 133.122 31.8663H135.179H135.188ZM133.637 28.258C133.356 26.9108 132.723 25.8193 131.731 24.9789C130.739 24.1386 129.544 23.7097 128.149 23.6837C126.754 23.6578 125.533 24.0909 124.489 24.9313C123.445 25.7716 122.812 26.8892 122.531 28.2623H133.641L133.637 28.258Z" fill="#444444"></path>
<path d="M143.829 36.9256C140.294 36.9256 138.54 35.4269 138.54 32.425V17.0476H140.498V22.107H143.829V23.9133H140.498V32.1001C140.498 34.2616 141.616 35.3272 143.829 35.3272V36.9299V36.9256Z" fill="#444444"></path>
<path d="M148.685 36.6226H146.653V22.1332H148.46V24.1907C148.867 23.4023 149.478 22.8176 150.266 22.3844C151.002 22.0032 151.739 21.8256 152.501 21.8516V23.7835C151.613 23.8095 150.872 24.0651 150.314 24.5199C149.755 24.9791 149.374 25.3862 149.17 25.7155C148.841 26.2742 148.689 27.0106 148.689 27.9506V36.6182L148.685 36.6226Z" fill="#444444"></path>
<path d="M170.144 36.6225H168.264V34.3614C166.687 36.1677 164.755 37.0297 162.468 36.956C160.458 36.8781 158.756 36.1157 157.357 34.6429C155.957 33.1702 155.247 31.4158 155.247 29.38C155.247 27.3441 156.009 25.4381 157.508 23.9394C159.007 22.4146 160.813 21.7043 162.923 21.7779C164.959 21.8559 166.687 22.6182 168.108 24.117C169.533 25.5898 170.217 27.3441 170.144 29.354V36.6225ZM157.205 29.224C157.179 30.7488 157.664 32.0959 158.704 33.2395C159.748 34.383 161.017 34.9678 162.49 35.0458C164.092 35.1237 165.439 34.5606 166.557 33.3954C167.701 32.1999 168.233 30.8007 168.207 29.2024C168.181 27.6776 167.623 26.3824 166.579 25.2865C165.535 24.1906 164.266 23.6578 162.793 23.6578C161.242 23.6578 159.947 24.1906 158.851 25.2865C157.755 26.3824 157.222 27.6776 157.201 29.2283L157.205 29.224Z" fill="#444444"></path>
<path d="M188.268 32.7803C186.743 35.6002 184.378 36.9733 181.203 36.9474C179.093 36.9214 177.287 36.185 175.762 34.7339C174.237 33.2828 173.475 31.5068 173.449 29.4189C173.423 27.3094 174.159 25.5291 175.684 24.0303C177.235 22.5316 179.067 21.7432 181.203 21.7172C182.727 21.6912 184.152 22.0984 185.474 22.9128C186.721 23.7011 187.635 24.6671 188.168 25.8626L188.449 26.4994H186.262C185.17 24.6454 183.516 23.6795 181.281 23.6275C179.782 23.6015 178.461 24.1343 177.265 25.2562C176.018 26.3998 175.411 27.7729 175.411 29.3496C175.411 30.9263 175.996 32.2735 177.139 33.4171C178.283 34.5346 179.656 35.0934 181.233 35.0674C183.494 35.0414 185.175 34.1274 186.292 32.3471H188.48L188.276 32.7803H188.268Z" fill="#444444"></path>
<path d="M202.38 36.6225H199.864L195.159 30.9264L192.846 33.8502V36.6225H190.763V17.0217H192.773V30.8267L199.482 22.1331H201.899L196.385 29.4276L202.385 36.6225H202.38Z" fill="#444444"></path>
<path d="M219.69 31.8663C219.157 33.417 218.243 34.6645 216.944 35.5785C215.644 36.4925 214.223 36.9516 212.647 36.9776C210.663 37.0036 208.908 36.2932 207.384 34.8161C205.859 33.3174 205.07 31.563 205.044 29.5012C204.993 27.3397 205.755 25.4597 207.332 23.909C208.934 22.3323 210.788 21.5959 212.95 21.7215C214.882 21.8471 216.558 22.6355 217.983 24.1126C219.356 25.5637 220.041 27.1881 220.041 28.9944V30.0383H207.024C207.176 31.4894 207.786 32.7066 208.878 33.6466C209.97 34.5865 211.243 35.0717 212.716 35.0457C215.003 35.0197 216.632 33.9541 217.624 31.8663H219.681H219.69ZM218.139 28.258C217.858 26.9108 217.225 25.8193 216.233 24.9789C215.241 24.1386 214.046 23.7097 212.651 23.6837C211.256 23.6578 210.035 24.0909 208.991 24.9313C207.947 25.7716 207.314 26.8892 207.033 28.2623H218.143L218.139 28.258Z" fill="#444444"></path>
<path d="M224.93 36.6226H222.895V22.1332H224.701V24.1907C225.108 23.4023 225.719 22.8176 226.507 22.3844C227.244 22.0032 227.98 21.8256 228.742 21.8516V23.7835C227.854 23.8095 227.114 24.0651 226.555 24.5199C225.996 24.9791 225.615 25.3862 225.411 25.7155C225.082 26.2742 224.926 27.0106 224.926 27.9506V36.6182L224.93 36.6226Z" fill="#444444"></path>
<defs>
<linearGradient id="paint0_linear_2798_2162" x1="58.3817" y1="19.4404" x2="35.9069" y2="39.6768" gradientUnits="userSpaceOnUse">
<stop offset="0.3101" stop-color="#2285D0"></stop>
<stop offset="1" stop-color="#00B8FE"></stop>
</linearGradient>
</defs>
</svg>