<svg width="259" height="54" viewBox="0 0 259 54" fill="none" xmlns="http://www.w3.org/2000/svg">
<path d="M75.1226 16.1415C73.1481 14.0299 70.6214 12.5132 67.8288 11.7655L67.9567 8C71.7379 8.83389 75.1772 10.7954 77.8207 13.6232C80.4641 16.4519 82.1884 20.0154 82.7656 23.8439L78.9974 23.7133C78.4396 20.8762 77.097 18.2531 75.1226 16.1415Z" fill="#2285D0"></path>
<path d="M46.0662 20.601C47.2141 17.3118 49.2386 14.3996 51.9228 12.1787C54.6061 9.95779 57.8462 8.51238 61.292 8L61.1642 11.7655C57.7415 12.4307 54.645 14.2375 52.3815 16.8902C50.117 19.542 48.8189 22.884 48.6994 26.3687C48.5863 30.1453 49.8631 33.8311 52.2888 36.7284C54.7136 39.6248 58.1186 41.5307 61.8554 42.0829C65.5931 42.6351 69.4021 41.7957 72.5616 39.7249C75.7211 37.6531 78.0097 34.4945 78.9937 30.8467L82.7656 30.9746C82.0216 34.3778 80.3622 37.5132 77.9652 40.0408C75.5682 42.5684 72.5255 44.3928 69.1667 45.3166C65.808 46.2403 62.2603 46.2273 58.908 45.2795C55.5558 44.3326 52.526 42.486 50.1476 39.9407C47.7691 37.3965 46.131 34.249 45.412 30.8402C44.6921 27.4305 44.9191 23.8902 46.0662 20.601Z" fill="url(#paint0_linear_2798_2109)"></path>
<path d="M112.696 36.5342H110.459L107.34 27.0419L104.392 36.5342H102.202L96.7656 22.1868H98.8014L103.261 34.1429L106.581 23.9236H108.221L111.493 34.0702L116.025 22.1868H118.085L112.696 36.5342Z" fill="#444444"></path>
<path d="M132.371 34.7246C130.885 36.2111 129.099 36.9381 127.031 36.8654C125.044 36.817 123.331 36.0576 121.95 34.6035C120.569 33.1412 119.882 31.4044 119.882 29.3928C119.882 27.3813 120.633 25.4909 122.12 24.0045C123.606 22.4938 125.391 21.7667 127.459 21.8394C129.447 21.9121 131.159 22.6715 132.541 24.158C133.922 25.6202 134.633 27.357 134.633 29.3686C134.633 31.3801 133.882 33.222 132.371 34.7327V34.7246ZM127.064 34.9751C128.647 35.0478 129.98 34.5227 131.095 33.3351C132.226 32.1557 132.759 30.7904 132.727 29.207C132.678 27.6963 132.121 26.4119 131.095 25.3293C130.061 24.2468 128.833 23.7217 127.371 23.7217C125.836 23.6975 124.551 24.2468 123.469 25.3293C122.386 26.4119 121.861 27.6963 121.837 29.2313C121.813 30.7419 122.289 32.0749 123.323 33.2059C124.357 34.3369 125.585 34.9185 127.072 34.967L127.064 34.9751Z" fill="#444444"></path>
<path d="M140.188 36.5343H138.177V22.1868H139.962V24.2226C140.366 23.439 140.972 22.8654 141.747 22.4373C142.475 22.0576 143.21 21.8799 143.961 21.9122V23.8268C143.08 23.851 142.353 24.1015 141.796 24.5538C141.239 25.0062 140.867 25.4102 140.665 25.7333C140.334 26.2907 140.188 27.0178 140.188 27.9468V36.5262V36.5343Z" fill="#444444"></path>
<path d="M158.702 36.5342H156.214L151.561 30.8954L149.266 33.7875V36.5342H147.198V17.1296H149.186V30.7985L155.834 22.1868H158.225L152.764 29.409L158.702 36.5342Z" fill="#444444"></path>
<path d="M164.426 36.5342H162.487V21.9121C162.487 18.8665 164.58 17.1296 167.52 17.1296H168.021V18.8423L167.52 18.8665C166.51 18.915 165.808 19.1412 165.379 19.5693C164.749 20.2479 164.426 20.9023 164.426 21.5809V22.1868H168.029V23.9479H164.426V36.5342Z" fill="#444444"></path>
<path d="M173.596 36.5342H171.682V17.1296H173.596V36.5342Z" fill="#444444"></path>
<path d="M189.185 34.7246C187.698 36.2111 185.913 36.9381 183.845 36.8654C181.857 36.817 180.145 36.0576 178.763 34.6035C177.382 33.1412 176.695 31.4044 176.695 29.3928C176.695 27.3813 177.447 25.4909 178.933 24.0045C180.419 22.4938 182.205 21.7667 184.273 21.8394C186.26 21.9121 187.973 22.6715 189.354 24.158C190.736 25.6202 191.447 27.357 191.447 29.3686C191.447 31.3801 190.695 33.222 189.185 34.7327V34.7246ZM183.877 34.9751C185.46 35.0478 186.793 34.5227 187.908 33.3351C189.039 32.1557 189.572 30.7904 189.54 29.207C189.492 27.6963 188.934 26.4119 187.908 25.3293C186.874 24.2468 185.646 23.7217 184.184 23.7217C182.649 23.6975 181.365 24.2468 180.282 25.3293C179.2 26.4119 178.675 27.6963 178.65 29.2313C178.626 30.7419 179.103 32.0749 180.137 33.2059C181.171 34.3369 182.399 34.9185 183.885 34.967L183.877 34.9751Z" fill="#444444"></path>
<path d="M208.614 36.5342H206.377L203.258 27.0419L200.31 36.5342H198.12L192.684 22.1868H194.719L199.179 34.1429L202.499 23.9236H204.139L207.411 34.0702L211.943 22.1868H214.003L208.614 36.5342Z" fill="#444444"></path>
<defs>
<linearGradient id="paint0_linear_2798_2109" x1="72.3817" y1="19.4404" x2="49.9069" y2="39.6768" gradientUnits="userSpaceOnUse">
<stop offset="0.3101" stop-color="#2285D0"></stop>
<stop offset="1" stop-color="#00B8FE"></stop>
</linearGradient>
</defs>
</svg>