<svg xmlns="http://www.w3.org/2000/svg" width="43.298" height="43.566" viewBox="0 0 43.298 43.566" fill="none">
  <path d="M 42.075 14.447 C 40.759 10.676 38.438 7.337 35.361 4.791 C 32.284 2.245 28.57 0.587 24.619 0 L 24.766 4.317 C 28.69 5.08 32.24 7.151 34.835 10.192 C 37.431 13.233 38.919 17.064 39.056 21.059 C 39.186 25.389 37.722 29.615 34.941 32.937 C 32.161 36.257 28.257 38.442 23.973 39.076 C 19.688 39.709 15.321 38.746 11.699 36.372 C 8.076 33.997 5.453 30.376 4.324 26.193 L 0 26.34 C 0.853 30.242 2.756 33.836 5.504 36.734 C 8.252 39.632 11.74 41.724 15.591 42.783 C 19.442 43.842 23.509 43.827 27.352 42.74 C 31.196 41.655 34.669 39.538 37.396 36.62 C 40.123 33.703 42.001 30.094 42.825 26.186 C 43.651 22.277 43.39 18.218 42.075 14.447 Z" fill="currentColor" fill-rule="nonzero"></path>
</svg>