<svg width="219" height="38" viewBox="0 0 219 38" fill="none" xmlns="http://www.w3.org/2000/svg">
<path d="M23.5282 3.31136C21.0296 1.54883 17.9397 1.27563 14.9914 1.27563H0V36.2883H3.33142V4.44819H14.8165C16.8737 4.44819 18.6143 4.39531 20.4883 5.32945C21.6352 5.89776 22.6053 6.80019 23.285 7.931C23.9646 9.0618 24.3255 10.3741 24.3255 11.7142C24.3255 13.0543 23.9646 14.3667 23.285 15.4975C22.6053 16.6283 21.6352 17.5307 20.4883 18.099C18.6143 19.0508 16.8737 18.9803 14.8165 18.9803H10.4773V22.1528H14.9914C17.9397 22.1528 21.0296 21.9149 23.5282 20.1171C24.8001 19.1636 25.8375 17.9015 26.5534 16.4364C27.2693 14.9713 27.6429 13.346 27.6429 11.6966C27.6429 10.0473 27.2693 8.42193 26.5534 6.95684C25.8375 5.49175 24.8001 4.22959 23.5282 3.27611V3.31136Z" fill="#444444"></path>
<path d="M134.531 4.44819V1.27563H111.094H108.104V4.44819V17.1913V20.3639V33.1158V36.2795H111.094H134.531V33.1158H111.094V20.3639H128.243V17.1913H111.094V4.44819H134.531Z" fill="#444444"></path>
<path d="M35.6252 36.2883H32.1855L46.3441 1.27563H50.0503L64.2672 36.2883H60.6276L48.193 5.25014L35.6252 36.2883Z" fill="#444444"></path>
<path d="M84.8477 24.5939V36.2883H81.5163V24.5939L70.0479 1.27563H73.7124L83.1487 20.9102L92.8681 1.27563H96.491L84.8477 24.5939Z" fill="#444444"></path>
<path d="M161.349 36.2883H158.084L144.45 1.27563H148.115L159.775 31.9349L171.493 1.27563H175.066L161.349 36.2883Z" fill="#444444"></path>
<path fill-rule="evenodd" clip-rule="evenodd" d="M214.582 6.66896C220.534 14.2413 219.893 25.1111 213.09 31.917C206.049 39.0182 194.072 39.5719 186.894 32.3321C180.109 25.4523 179.632 14.5001 185.785 7.04787L188.075 9.35646C183.744 14.9802 183.79 22.8574 188.194 28.4258C193.449 35.0747 203.064 36.1551 209.657 30.8545C216.249 25.5539 217.33 15.8578 212.065 9.209L214.582 6.66896ZM188.259 4.49025C195.09 -1.35516 205.07 -1.51239 212.066 4.1299L209.53 6.68752C203.935 2.31036 196.097 2.35708 190.548 6.79885L188.259 4.49025Z" fill="#444444"></path>
</svg>