<svg xmlns="http://www.w3.org/2000/svg" width="251.747" height="40" viewBox="0 0 251.747 40" fill="none">
  <path d="M 27.254 3.094 C 24.36 1.164 20.781 0.865 17.366 0.865 L 0 0.865 L 0 39.195 L 3.859 39.195 L 3.859 4.338 L 17.163 4.338 C 19.546 4.338 21.562 4.28 23.733 5.303 C 25.062 5.925 26.185 6.913 26.973 8.151 C 27.76 9.389 28.178 10.826 28.178 12.293 C 28.178 13.76 27.76 15.197 26.973 16.434 C 26.185 17.672 25.062 18.66 23.733 19.283 C 21.562 20.324 19.546 20.247 17.163 20.247 L 12.137 20.247 L 12.137 23.72 L 17.366 23.72 C 20.781 23.72 24.36 23.46 27.254 21.492 C 28.728 20.448 29.929 19.066 30.759 17.462 C 31.588 15.858 32.021 14.079 32.021 12.274 C 32.021 10.468 31.588 8.689 30.759 7.085 C 29.929 5.481 28.728 4.099 27.254 3.055 L 27.254 3.094 Z" fill="currentColor" fill-rule="nonzero"></path>
  <path d="M 155.838 4.338 L 155.838 0.865 L 125.226 0.865 L 125.226 39.186 L 155.838 39.186 L 155.838 35.722 L 128.69 35.722 L 128.69 21.762 L 148.554 21.762 L 148.554 18.289 L 128.69 18.289 L 128.69 4.338 L 155.838 4.338 Z" fill="currentColor" fill-rule="nonzero"></path>
  <path d="M 41.269 39.195 L 37.284 39.195 L 53.685 0.865 L 57.979 0.865 L 74.447 39.195 L 70.231 39.195 L 55.827 5.216 L 41.269 39.195 Z" fill="currentColor" fill-rule="nonzero"></path>
  <path d="M 98.286 26.393 L 98.286 39.195 L 94.427 39.195 L 94.427 26.393 L 81.142 0.865 L 85.387 0.865 L 96.318 22.36 L 107.577 0.865 L 111.773 0.865 L 98.286 26.393 Z" fill="currentColor" fill-rule="nonzero"></path>
  <path d="M 186.903 39.195 L 183.121 39.195 L 167.328 0.865 L 171.573 0.865 L 185.08 34.429 L 198.654 0.865 L 202.793 0.865 L 186.903 39.195 Z" fill="currentColor" fill-rule="nonzero"></path>
  <path d="M 221.47 7.301 C 224.394 4.959 228.024 3.676 231.77 3.662 C 235.516 3.648 239.156 4.904 242.097 7.223 L 244.818 4.512 C 241.157 1.539 236.571 -0.057 231.856 0.002 C 227.141 0.06 222.596 1.768 219.01 4.831 L 221.47 7.301 Z" fill="currentColor" fill-rule="nonzero"></path>
  <path d="M 244.567 9.674 C 247.082 12.843 248.345 16.826 248.116 20.865 C 247.886 24.905 246.18 28.719 243.322 31.583 C 237.1 37.806 226.555 38.028 220.293 31.767 C 217.407 28.894 215.68 25.058 215.446 20.992 C 215.211 16.927 216.483 12.917 219.02 9.732 L 216.589 7.291 C 213.306 11.115 211.582 16.035 211.761 21.073 C 211.94 26.11 214.008 30.895 217.553 34.478 C 225.272 42.196 238.17 41.617 245.744 34.034 C 253.066 26.711 253.838 14.835 247.239 6.943 L 244.567 9.674 Z" fill="currentColor" fill-rule="nonzero"></path>
</svg>