<svg width="259" height="54" viewBox="0 0 259 54" fill="none" xmlns="http://www.w3.org/2000/svg">
<path d="M120.123 16.1415C118.148 14.0299 115.621 12.5132 112.829 11.7655L112.957 8C116.738 8.83389 120.177 10.7954 122.821 13.6232C125.464 16.4519 127.188 20.0154 127.766 23.8439L123.997 23.7133C123.44 20.8762 122.097 18.2531 120.123 16.1415Z" fill="#2285D0"></path>
<path d="M91.0662 20.601C92.2141 17.3118 94.2386 14.3996 96.9228 12.1787C99.6061 9.95779 102.846 8.51238 106.292 8L106.164 11.7655C102.742 12.4307 99.645 14.2375 97.3815 16.8902C95.117 19.542 93.8189 22.884 93.6994 26.3687C93.5863 30.1453 94.8631 33.8311 97.2888 36.7284C99.7136 39.6248 103.119 41.5307 106.855 42.0829C110.593 42.6351 114.402 41.7957 117.562 39.7249C120.721 37.6531 123.01 34.4945 123.994 30.8467L127.766 30.9746C127.022 34.3778 125.362 37.5132 122.965 40.0408C120.568 42.5684 117.525 44.3928 114.167 45.3166C110.808 46.2403 107.26 46.2273 103.908 45.2795C100.556 44.3326 97.526 42.486 95.1476 39.9407C92.7691 37.3965 91.131 34.249 90.412 30.8402C89.6921 27.4305 89.9191 23.8902 91.0662 20.601Z" fill="url(#paint0_linear_2798_2231)"></path>
<path d="M154.615 36.8484H152.675V28.3669C152.675 27.1419 152.214 26.0942 151.321 25.198C150.428 24.305 149.354 23.8698 148.152 23.8956C146.927 23.9214 145.879 24.3308 145.034 25.1464C144.19 25.9394 143.784 26.9613 143.784 28.2121V36.8452H141.766V17.1516H143.732V24.3566C144.831 22.8995 146.259 22.1355 147.997 22.0581C149.812 21.9807 151.343 22.5674 152.646 23.8472C153.948 25.1238 154.612 26.7099 154.612 28.5732V36.8484H154.615Z" fill="#444444"></path>
<path d="M168.871 36.8483H166.443L162.61 31.0231L158.803 36.8483H156.505L161.408 29.4145L156.453 22.2869H158.674L162.607 27.8316L166.414 22.2869H168.816L163.758 29.4661L168.868 36.8483H168.871Z" fill="#444444"></path>
<defs>
<linearGradient id="paint0_linear_2798_2231" x1="117.382" y1="19.4404" x2="94.9069" y2="39.6768" gradientUnits="userSpaceOnUse">
<stop offset="0.3101" stop-color="#2285D0"></stop>
<stop offset="1" stop-color="#00B8FE"></stop>
</linearGradient>
</defs>
</svg>