<svg width="260" height="54" viewBox="0 0 260 54" fill="none" xmlns="http://www.w3.org/2000/svg">
<path d="M35.6431 16.3739C37.6175 14.2623 40.1442 12.7456 42.9368 11.9978L42.8089 8.23236C39.0277 9.06625 35.5884 11.0277 32.945 13.8556C30.3015 16.6843 28.5772 20.2478 28 24.0763L31.7683 23.9456C32.326 21.1085 33.6686 18.4855 35.6431 16.3739Z" fill="#4DAE4B"></path>
<path d="M64.9309 20.601C63.7829 17.3118 61.7584 14.3996 59.0742 12.1787C56.391 9.95779 53.1508 8.51238 49.705 8L49.8329 11.7655C53.2555 12.4307 56.3521 14.2375 58.6156 16.8902C60.8801 19.542 62.1782 22.884 62.2977 26.3687C62.4107 30.1453 61.1339 33.8311 58.7083 36.7284C56.2835 39.6248 52.8784 41.5307 49.1417 42.0829C45.404 42.6351 41.595 41.7957 38.4355 39.7249C35.276 37.6531 32.9874 34.4945 32.0034 30.8467L28.2314 30.9746C28.9755 34.3778 30.6349 37.5132 33.0319 40.0408C35.4288 42.5684 38.4716 44.3928 41.8303 45.3166C45.1891 46.2403 48.7368 46.2273 52.089 45.2795C55.4413 44.3326 58.4711 42.486 60.8495 39.9407C63.2279 37.3965 64.8661 34.249 65.5851 30.8402C66.305 27.4305 66.078 23.8902 64.9309 20.601Z" fill="url(#paint0_linear_2798_4289)"></path>
<path d="M81.8886 39.4179H79.9971V27.0129C79.9971 24.9148 80.7653 23.1007 82.2728 21.59C83.806 20.0567 85.6234 19.3143 87.7215 19.3918C89.7422 19.4434 91.4562 20.2117 92.8636 21.6933C94.271 23.1782 94.9876 24.9406 94.9876 26.9871C94.9876 29.0336 94.2193 30.951 92.7119 32.4875C91.2012 33.995 89.3871 34.7374 87.289 34.6631C85.1392 34.5857 83.3509 33.7174 81.8919 32.0808V39.4211L81.8886 39.4179ZM87.6957 21.3092C86.085 21.2317 84.7292 21.7708 83.5768 22.9716C82.4503 24.1724 81.9145 25.5539 81.9403 27.1679C81.9661 28.7012 82.5278 30.0052 83.5768 31.1059C84.6259 32.2067 85.9042 32.7425 87.4149 32.7425C88.9255 32.7425 90.2554 32.2067 91.3529 31.1059C92.4537 30.0052 93.0153 28.7011 93.0411 27.1421C93.067 25.6088 92.5537 24.2756 91.5079 23.1265C90.4588 21.9741 89.2064 21.3608 87.6957 21.3092Z" fill="#444444"></path>
<path d="M111.84 34.3017H109.949V32.0261C108.364 33.8434 106.417 34.7117 104.116 34.6342C102.095 34.5567 100.381 33.7885 98.9736 32.3069C97.5662 30.822 96.8496 29.0596 96.8496 27.0131C96.8496 24.9666 97.6179 23.0492 99.1253 21.5385C100.633 20.0052 102.45 19.2886 104.574 19.3629C106.621 19.4403 108.36 20.2086 109.79 21.716C111.224 23.2009 111.914 24.9633 111.837 26.984V34.2985L111.84 34.3017ZM98.8219 26.8581C98.7961 28.3914 99.2835 29.7471 100.333 30.8995C101.382 32.0519 102.66 32.6393 104.145 32.7168C105.755 32.7943 107.111 32.2326 108.238 31.0544C109.39 29.8537 109.926 28.4463 109.9 26.8355C109.874 25.3023 109.313 23.9949 108.264 22.8974C107.215 21.7967 105.936 21.2609 104.451 21.2609C102.892 21.2609 101.588 21.7967 100.487 22.8974C99.3868 23.9982 98.8509 25.3023 98.8251 26.8614L98.8219 26.8581Z" fill="#444444"></path>
<path d="M119.358 39.3923H117.26L119.458 33.8435L113.884 19.7245H116.008L120.662 31.2869L125.572 19.7245H127.619L119.358 39.3923Z" fill="#444444"></path>
<path d="M144.142 30.4377C142.609 33.275 140.23 34.6566 137.031 34.634C134.907 34.6082 133.093 33.8658 131.557 32.41C130.023 30.9509 129.255 29.1627 129.229 27.0645C129.203 24.9405 129.946 23.1522 131.479 21.6416C133.038 20.1341 134.881 19.3401 137.028 19.3142C138.561 19.2884 139.994 19.6983 141.324 20.515C142.577 21.3091 143.5 22.2807 144.036 23.4815L144.317 24.1206H142.118C141.018 22.2549 139.355 21.2833 137.105 21.2316C135.595 21.2058 134.265 21.7416 133.064 22.8682C131.812 24.0206 131.198 25.3989 131.198 26.987C131.198 28.5752 131.786 29.9277 132.938 31.08C134.09 32.2066 135.469 32.7682 137.057 32.7424C139.333 32.7166 141.021 31.7966 142.147 30.0051H144.346L144.142 30.4409V30.4377Z" fill="#444444"></path>
<path d="M158.206 34.3015H156.263V25.8089C156.263 24.5822 155.802 23.5332 154.907 22.6358C154.013 21.7384 152.938 21.3059 151.734 21.3317C150.508 21.3575 149.459 21.7675 148.613 22.5842C147.767 23.3782 147.361 24.4015 147.361 25.6539V34.2983H145.34V14.5789H147.309V21.7901C148.41 20.3311 149.84 19.566 151.579 19.4886C153.397 19.4111 154.93 19.9986 156.234 21.2801C157.538 22.5583 158.203 24.1432 158.203 26.0122V34.2983L158.206 34.3015Z" fill="#444444"></path>
<path d="M174.808 29.5182C174.272 31.0773 173.349 32.333 172.045 33.2529C170.741 34.1729 169.308 34.6345 167.723 34.6603C165.728 34.6861 163.962 33.9695 162.429 32.4847C160.896 30.9772 160.102 29.2115 160.076 27.1392C160.024 24.9636 160.792 23.072 162.377 21.5129C163.988 19.928 165.857 19.1856 168.029 19.3147C169.973 19.4438 171.661 20.2347 173.094 21.7195C174.475 23.1786 175.166 24.8151 175.166 26.6292V27.6783H162.071C162.225 29.1373 162.839 30.3639 163.936 31.3097C165.037 32.2555 166.315 32.7429 167.797 32.7171C170.098 32.6912 171.735 31.6164 172.732 29.5214H174.805L174.808 29.5182ZM173.249 25.8868C172.968 24.531 172.329 23.4303 171.331 22.5878C170.334 21.7421 169.133 21.3096 167.726 21.2837C166.319 21.2579 165.092 21.6937 164.043 22.5362C162.994 23.3819 162.355 24.5052 162.074 25.8868H173.252H173.249Z" fill="#444444"></path>
<path d="M191.893 39.4179H189.976V32.0776C188.517 33.7142 186.728 34.5857 184.604 34.66C182.48 34.7374 180.666 33.995 179.156 32.4843C177.648 30.9511 176.88 29.1079 176.88 26.9839C176.88 24.86 177.571 23.1717 178.978 21.6901C180.385 20.2053 182.125 19.4403 184.146 19.3886C186.27 19.3111 188.084 20.0536 189.646 21.5868C191.205 23.1201 191.948 24.9374 191.896 27.0098V39.4147L191.893 39.4179ZM178.849 27.1421C178.875 28.7012 179.411 30.0053 180.511 31.106C181.612 32.2067 182.916 32.7426 184.475 32.7426C186.034 32.7426 187.238 32.2067 188.287 31.106C189.336 30.0053 189.898 28.7012 189.924 27.1679C189.95 25.5572 189.414 24.1756 188.262 22.9716C187.135 21.7708 185.779 21.2318 184.169 21.3092C182.684 21.3609 181.405 21.9742 180.356 23.1266C179.307 24.2789 178.823 25.6088 178.846 27.1421H178.849Z" fill="#444444"></path>
<path d="M206.803 28.0332C206.803 29.9248 206.189 31.5129 204.959 32.7654C203.759 34.0178 202.222 34.6569 200.356 34.6569C198.491 34.6569 196.954 34.0178 195.727 32.7654C194.527 31.5129 193.91 29.9248 193.91 28.0332V19.7213H195.879V28.2656C195.879 29.4923 196.315 30.5413 197.209 31.4387C198.103 32.307 199.152 32.7428 200.356 32.7428C201.56 32.7428 202.58 32.307 203.478 31.4387C204.372 30.5446 204.833 29.4955 204.833 28.2656V19.7213H206.803V28.0332Z" fill="#444444"></path>
<path d="M223.708 29.5182C223.173 31.0773 222.249 32.333 220.945 33.2529C219.641 34.1729 218.208 34.6345 216.623 34.6603C214.628 34.6861 212.862 33.9695 211.329 32.4847C209.796 30.9772 209.002 29.2115 208.976 27.1392C208.924 24.9636 209.693 23.072 211.278 21.5129C212.888 19.928 214.757 19.1856 216.93 19.3147C218.873 19.4438 220.561 20.2347 221.994 21.7195C223.376 23.1786 224.067 24.8151 224.067 26.6292V27.6783H210.971C211.126 29.1373 211.739 30.3639 212.837 31.3097C213.937 32.2555 215.216 32.7429 216.697 32.7171C218.999 32.6912 220.635 31.6164 221.633 29.5214H223.705L223.708 29.5182ZM222.149 25.8868C221.868 24.531 221.229 23.4303 220.232 22.5878C219.234 21.7421 218.034 21.3096 216.626 21.2837C215.219 21.2579 213.992 21.6937 212.943 22.5362C211.894 23.3819 211.255 24.5052 210.974 25.8868H222.152H222.149Z" fill="#444444"></path>
<path d="M227.697 34.3011H225.65V19.7205H227.468V21.7928C227.878 20.9988 228.491 20.4113 229.285 19.9755C230.027 19.5914 230.77 19.4139 231.535 19.4397V21.3829C230.641 21.4087 229.898 21.6637 229.333 22.1253C228.772 22.5869 228.388 22.9936 228.181 23.3261C227.849 23.8878 227.694 24.6302 227.694 25.576V34.2978L227.697 34.3011Z" fill="#444444"></path>
<defs>
<linearGradient id="paint0_linear_2798_4289" x1="38.6154" y1="19.4404" x2="61.0902" y2="39.6768" gradientUnits="userSpaceOnUse">
<stop offset="0.3101" stop-color="#4DAE4B"></stop>
<stop offset="1" stop-color="#00D410"></stop>
</linearGradient>
</defs>
</svg>