<svg width="260" height="54" viewBox="0 0 260 54" fill="none" xmlns="http://www.w3.org/2000/svg">
<path d="M94.1226 16.1415C92.1481 14.0299 89.6214 12.5132 86.8288 11.7655L86.9567 8C90.7379 8.83389 94.1772 10.7954 96.8207 13.6232C99.4641 16.4519 101.188 20.0154 101.766 23.8439L97.9974 23.7133C97.4396 20.8762 96.097 18.2531 94.1226 16.1415Z" fill="#2285D0"></path>
<path d="M65.0662 20.601C66.2141 17.3118 68.2386 14.3996 70.9228 12.1787C73.6061 9.95779 76.8462 8.51238 80.292 8L80.1642 11.7655C76.7415 12.4307 73.645 14.2375 71.3815 16.8902C69.117 19.542 67.8189 22.884 67.6994 26.3687C67.5864 30.1453 68.8631 33.8311 71.2888 36.7284C73.7136 39.6248 77.1186 41.5307 80.8554 42.0829C84.5931 42.6351 88.4021 41.7957 91.5616 39.7249C94.7211 37.6531 97.0097 34.4945 97.9937 30.8467L101.766 30.9746C101.022 34.3778 99.3622 37.5132 96.9652 40.0408C94.5682 42.5684 91.5255 44.3928 88.1667 45.3166C84.808 46.2403 81.2603 46.2273 77.9081 45.2795C74.5558 44.3326 71.526 42.486 69.1476 39.9407C66.7691 37.3965 65.131 34.249 64.412 30.8402C63.6921 27.4305 63.9191 23.8902 65.0662 20.601Z" fill="url(#paint0_linear_2798_2060)"></path>
<path d="M117.659 39.4295H115.766V27.0112C115.766 24.9108 116.535 23.0947 118.044 21.5824C119.553 20.0701 121.398 19.3043 123.498 19.3818C125.521 19.4335 127.237 20.2026 128.646 21.6858C130.055 23.1723 130.772 24.9366 130.772 26.9853C130.772 29.0341 130.003 30.9535 128.494 32.4917C126.982 34.0008 125.166 34.744 123.065 34.6697C120.913 34.5921 119.123 33.7228 117.662 32.0845V39.4328L117.659 39.4295ZM123.473 21.3013C121.86 21.2237 120.503 21.7634 119.349 22.9655C118.222 24.1675 117.685 25.5506 117.711 27.1663C117.737 28.7012 118.299 30.01 119.349 31.1086C120.399 32.2105 121.679 32.747 123.191 32.747C124.704 32.747 126.035 32.2105 127.134 31.1086C128.236 30.0067 128.798 28.7012 128.824 27.1405C128.85 25.6055 128.336 24.271 127.289 23.1206C126.239 21.967 124.985 21.353 123.473 21.3013Z" fill="#444444"></path>
<path d="M147.64 34.3079H145.747V32.0297C144.16 33.849 142.212 34.7183 139.908 34.6407C137.885 34.5632 136.169 33.7973 134.76 32.3109C133.351 30.8244 132.634 29.0601 132.634 27.0113C132.634 24.9626 133.403 23.0432 134.912 21.5309C136.421 19.9959 138.24 19.2786 140.367 19.3529C142.415 19.4304 144.157 20.1995 145.589 21.7086C147.023 23.195 147.715 24.9594 147.637 26.9823V34.3047L147.64 34.3079ZM134.608 26.8562C134.582 28.3912 135.07 29.7484 136.12 30.902C137.171 32.0556 138.45 32.6437 139.937 32.7213C141.549 32.7988 142.906 32.2333 144.034 31.0571C145.188 29.855 145.724 28.4461 145.698 26.8336C145.673 25.2987 145.11 23.99 144.06 22.8913C143.01 21.7894 141.73 21.253 140.244 21.253C138.683 21.253 137.378 21.7894 136.276 22.8913C135.174 23.9932 134.637 25.2987 134.611 26.8595L134.608 26.8562Z" fill="#444444"></path>
<path d="M155.17 39.4039H153.07L155.27 33.8491L149.689 19.7148H151.816L156.475 31.2898L161.39 19.7148H163.439L155.17 39.4071V39.4039Z" fill="#444444"></path>
<path d="M166.945 34.3079H164.896V19.7116H166.716V21.7861C167.126 20.9912 167.74 20.4031 168.535 19.9669C169.278 19.5823 170.022 19.4046 170.787 19.4304V21.3758C169.892 21.4016 169.149 21.6569 168.587 22.119C168.024 22.5811 167.64 22.9882 167.433 23.3211C167.1 23.8833 166.945 24.6266 166.945 25.5734V34.3047V34.3079Z" fill="#444444"></path>
<path d="M184.996 32.4659C183.487 33.9782 181.667 34.7182 179.567 34.6439C177.544 34.5921 175.802 33.8231 174.393 32.3399C172.984 30.8534 172.293 29.089 172.293 27.0403C172.293 24.9916 173.062 23.0722 174.571 21.5599C176.083 20.0249 177.899 19.2817 180 19.3593C182.023 19.4368 183.764 20.2059 185.173 21.715C186.582 23.2014 187.3 24.9658 187.3 27.0145C187.3 29.0632 186.531 30.931 184.996 32.4691V32.4659ZM179.593 32.7212C181.205 32.7987 182.562 32.2591 183.69 31.057C184.844 29.8549 185.38 28.4719 185.354 26.8561C185.303 25.3212 184.74 24.0125 183.69 22.9138C182.64 21.8119 181.386 21.2755 179.9 21.2755C178.339 21.2496 177.03 21.8119 175.932 22.9138C174.83 24.0157 174.293 25.3212 174.267 26.882C174.242 28.4169 174.729 29.7741 175.776 30.9277C176.827 32.0813 178.08 32.6695 179.593 32.7212Z" fill="#444444"></path>
<path d="M191.219 34.3079H189.273V14.5671H191.219V34.3079Z" fill="#444444"></path>
<path d="M195.365 34.3079H193.42V14.5671H195.365V34.3079Z" fill="#444444"></path>
<defs>
<linearGradient id="paint0_linear_2798_2060" x1="91.3817" y1="19.4404" x2="68.9069" y2="39.6768" gradientUnits="userSpaceOnUse">
<stop offset="0.3101" stop-color="#2285D0"></stop>
<stop offset="1" stop-color="#00B8FE"></stop>
</linearGradient>
</defs>
</svg>